<?xml version="1.0" standalone="no"?>
<!DOCTYPE svg PUBLIC "-//W3C//DTD SVG 20010904//EN"
 "http://www.w3.org/TR/2001/REC-SVG-20010904/DTD/svg10.dtd">
<svg version="1.0" xmlns="http://www.w3.org/2000/svg"
 width="73.000000pt" height="70.000000pt" viewBox="0 0 73.000000 70.000000"
 preserveAspectRatio="xMidYMid meet">

<g transform="translate(0.000000,70.000000) scale(0.100000,-0.100000)"
fill="#000000" stroke="none">
<path d="M244 683 c-148 -43 -254 -202 -241 -360 10 -127 86 -234 207 -292 47
-22 68 -26 150 -26 88 0 101 3 162 33 74 36 132 95 169 170 20 39 24 63 24
142 0 86 -3 101 -30 153 -42 84 -119 151 -202 177 -76 23 -166 25 -239 3z m86
-134 c0 -27 -4 -49 -10 -49 -5 0 -10 14 -10 30 0 33 -2 35 -31 19 -41 -21 -42
-2 -1 21 23 13 40 25 38 28 -5 4 -86 -46 -86 -53 0 -2 29 -20 64 -40 l65 -36
41 21 c23 12 55 29 71 39 l30 19 -47 26 c-26 14 -49 25 -50 23 -2 -2 15 -14
38 -27 41 -23 40 -42 -1 -21 -29 16 -31 14 -31 -19 0 -16 -4 -30 -10 -30 -15
0 -12 96 3 108 10 8 29 1 76 -29 34 -22 61 -45 58 -52 -5 -15 -157 -106 -177
-106 -24 0 -175 94 -175 110 0 7 27 30 60 50 71 44 85 38 85 -32z m-33 -31
c-3 -7 -5 -2 -5 12 0 14 2 19 5 13 2 -7 2 -19 0 -25z m135 0 c-9 -9 -12 -7
-12 12 0 19 3 21 12 12 9 -9 9 -15 0 -24z m-142 -137 c-9 -17 -8 -20 5 -15 9
4 15 18 15 36 0 17 4 27 10 23 6 -3 10 -19 10 -34 0 -20 -7 -31 -27 -40 -14
-7 -29 -8 -32 -4 -7 9 -31 16 -31 8 0 -2 14 -11 30 -20 l30 -16 -2 -112 -2
-112 -6 95 -6 95 -2 -92 c-1 -51 -5 -93 -8 -93 -10 0 -124 71 -124 77 0 3 10
3 23 0 20 -6 21 -5 4 7 -16 13 -14 16 28 39 l45 26 0 -30 c0 -20 -5 -29 -16
-29 -14 0 -15 2 -3 17 13 15 12 15 -10 3 -23 -12 -24 -13 -6 -26 10 -7 23 -15
29 -17 6 -2 8 -7 4 -11 -3 -4 -16 -3 -27 4 -12 6 -21 8 -21 6 0 -3 14 -12 30
-21 l30 -16 0 76 c0 85 -1 86 -88 136 l-52 29 0 -60 c0 -38 -4 -59 -10 -55
-14 9 -13 138 2 153 9 9 24 4 65 -19 52 -30 53 -30 83 -12 20 11 30 26 31 43
2 22 2 23 6 3 2 -12 -1 -31 -7 -42z m148 37 c-2 -15 5 -29 20 -39 13 -9 20
-19 14 -22 -15 -10 -52 32 -52 58 0 14 5 25 11 25 6 0 9 -10 7 -22z m-7 -53
c10 -4 19 -11 19 -16 0 -12 -4 -11 -35 3 -18 8 -25 19 -25 38 0 38 14 48 18
11 2 -19 10 -32 23 -36z m183 39 c10 -26 7 -142 -4 -149 -6 -4 -10 17 -10 56
0 34 -3 59 -7 56 -4 -4 -5 -32 -4 -62 l2 -54 -40 22 c-40 22 -58 46 -23 32 47
-20 52 -18 52 14 0 17 -3 31 -7 31 -16 0 -94 -52 -103 -70 -10 -18 -15 -150
-6 -150 9 0 76 42 76 47 0 3 -16 -4 -35 -16 -25 -14 -35 -17 -35 -7 0 7 12 18
27 25 l28 13 -28 20 c-43 31 -31 39 18 11 25 -13 43 -29 39 -34 -3 -5 0 -9 6
-9 20 0 1 -18 -55 -49 -85 -48 -85 -48 -85 73 0 118 -6 108 104 173 81 48 82
48 90 27z m-464 -81 c0 -12 3 -13 13 -4 8 6 17 8 21 4 4 -4 -4 -13 -16 -21
-18 -10 -19 -12 -3 -7 69 24 69 16 3 -24 l-38 -23 0 52 c0 31 4 49 10 45 6 -3
10 -13 10 -22z m420 -15 c0 -6 -7 -7 -16 -4 -9 3 -18 6 -20 6 -3 0 -3 4 1 10
7 11 35 2 35 -12z m-185 -10 c28 -12 35 -35 8 -23 -10 5 -25 8 -33 8 -8 0 -23
-3 -32 -8 -26 -11 -22 10 5 23 12 6 23 11 24 11 1 1 14 -4 28 -11z m-39 -43
c-23 -17 -36 -19 -36 -6 0 11 18 19 40 20 11 0 10 -3 -4 -14z m54 5 c8 -5 12
-12 9 -15 -8 -8 -39 5 -39 16 0 11 11 11 30 -1z m105 -68 c-7 -8 -35 7 -35 18
0 6 7 6 20 -2 10 -7 17 -14 15 -16z"/>
<path d="M498 524 c-38 -20 -36 -28 2 -9 17 9 30 18 30 20 0 7 -1 6 -32 -11z"/>
<path d="M215 523 c6 -6 33 -23 60 -38 28 -16 46 -24 40 -18 -5 6 -32 23 -60
38 -27 16 -45 24 -40 18z"/>
<path d="M415 475 c-22 -13 -37 -25 -33 -25 9 0 78 41 78 46 0 6 -3 5 -45 -21z"/>
<path d="M340 450 c8 -5 20 -10 25 -10 6 0 3 5 -5 10 -8 5 -19 10 -25 10 -5 0
-3 -5 5 -10z"/>
<path d="M111 396 c2 -2 15 -9 29 -15 24 -11 24 -11 6 3 -16 13 -49 24 -35 12z"/>
<path d="M170 366 c0 -3 14 -12 30 -21 17 -9 30 -13 30 -11 0 3 -13 12 -30 21
-16 9 -30 13 -30 11z"/>
<path d="M254 311 c21 -23 26 -26 26 -11 0 5 -10 15 -22 21 -23 12 -23 12 -4
-10z"/>
<path d="M535 364 c-67 -40 -95 -63 -95 -77 0 -5 8 0 18 11 9 12 49 39 87 61
39 23 66 41 60 40 -5 0 -37 -16 -70 -35z"/>
</g>
</svg>
