<svg width="224" height="188" viewBox="0 0 224 188" fill="none" xmlns="http://www.w3.org/2000/svg">
<path d="M113.466 188C174.512 188 224 185.292 224 181.951C224 178.611 174.512 175.903 113.466 175.903C52.4201 175.903 2.93237 178.611 2.93237 181.951C2.93237 185.292 52.4201 188 113.466 188Z" fill="#DA2619"/>
<path opacity="0.7" d="M113.466 188C174.512 188 224 185.292 224 181.951C224 178.611 174.512 175.903 113.466 175.903C52.4201 175.903 2.93237 178.611 2.93237 181.951C2.93237 185.292 52.4201 188 113.466 188Z" fill="#FFE3E3"/>
<path d="M137.663 22.6204L137.344 25.0024L138.806 25.4601C138.827 26.2766 138.955 27.0882 139.189 27.8785L137.922 28.6899L138.988 30.9003L140.526 30.6454C141.005 31.3428 141.575 31.9886 142.223 32.5698L141.581 33.8388L143.761 35.2742L144.939 34.3901C145.749 34.7841 146.61 35.0914 147.502 35.3054L147.667 36.6837L150.36 36.9697L150.884 35.6747C151.809 35.656 152.729 35.5425 153.624 35.3367L154.549 36.4496L157.059 35.4979L156.782 34.1456C157.57 33.7223 158.3 33.2196 158.956 32.6478L160.394 33.2147L162.02 31.2903L161.013 30.2501C161.46 29.5373 161.808 28.7794 162.05 27.9929L163.611 27.8473L163.935 25.4653L162.468 25.0024C162.45 24.1874 162.321 23.3773 162.085 22.5892L163.358 21.7726L162.285 19.5622L160.753 19.8119C160.272 19.1162 159.7 18.4722 159.051 17.8927L159.687 16.6289L157.489 15.2143L156.311 16.1036C155.505 15.7141 154.651 15.407 153.765 15.1883L153.6 13.81L150.902 13.5292L150.378 14.819C149.454 14.8391 148.537 14.9543 147.644 15.1623L146.719 14.0441L144.215 14.9854L144.497 16.3377C143.713 16.7547 142.985 17.2504 142.329 17.8147L140.897 17.253L139.265 19.1774L140.273 20.2176C139.827 20.9328 139.479 21.6923 139.236 22.48L137.663 22.6204ZM143.926 24.5291C144.084 23.358 144.632 22.2544 145.5 21.3583C146.369 20.4621 147.519 19.8135 148.805 19.4947C150.092 19.1758 151.456 19.201 152.727 19.5671C153.997 19.9332 155.115 20.6236 155.941 21.5511C156.766 22.4786 157.261 23.6014 157.363 24.7773C157.465 25.9533 157.17 27.1296 156.514 28.1573C155.859 29.185 154.873 30.0179 153.681 30.5506C152.489 31.0834 151.144 31.2919 149.818 31.1499V31.1499C148.043 30.9599 146.426 30.1561 145.321 28.9149C144.216 27.6737 143.715 26.0964 143.926 24.5291Z" stroke="#2D2D2D" stroke-width="1.57112" stroke-linejoin="round"/>
<path d="M67.2709 81.2345L66.9822 83.3929L68.3079 83.809C68.3264 84.5483 68.4431 85.2832 68.6555 85.9986L67.4771 86.7371L68.4434 88.7395L69.8339 88.5054C70.269 89.1364 70.785 89.721 71.3717 90.2477L70.7825 91.3971L72.8035 92.7078L73.8699 91.9016C74.6031 92.2603 75.3825 92.5397 76.1914 92.7338L76.3387 93.982L78.7838 94.242L79.2552 93.0666C80.0929 93.0512 80.9255 92.9482 81.7357 92.7598L82.5724 93.774L84.8349 92.9158L84.5875 91.6676C85.3023 91.2835 85.9646 90.828 86.5613 90.3101L87.8634 90.8302L89.3364 89.0931L88.4231 88.1414C88.828 87.4954 89.1444 86.8093 89.3659 86.0974L90.7799 85.9622L91.0687 83.8038L89.743 83.3877C89.7244 82.6484 89.6078 81.9135 89.3953 81.1981L90.5737 80.4596L89.6015 78.4572L88.2169 78.6809C87.7776 78.0529 87.2576 77.4717 86.6673 76.949L87.2565 75.7996L85.2356 74.5045L84.1632 75.3107C83.4333 74.955 82.6579 74.6774 81.8536 74.4837L81.7063 73.2355L79.2611 72.9755L78.7897 74.1509C77.9521 74.1668 77.1195 74.2698 76.3092 74.4577L75.4725 73.4644L73.2041 74.3173L73.4575 75.5447C72.7424 75.9284 72.08 76.3839 71.4837 76.9022L70.1815 76.3821L68.7085 78.1244L69.6218 79.0709C69.2179 79.7191 68.9015 80.4069 68.6791 81.1201L67.2709 81.2345ZM72.9449 82.9612C73.0885 81.9012 73.585 80.9025 74.3715 80.0915C75.1581 79.2805 76.1994 78.6936 77.3638 78.4049C78.5282 78.1162 79.7634 78.1388 80.9133 78.4697C82.0631 78.8006 83.076 79.4251 83.8239 80.2641C84.5718 81.1031 85.0211 82.119 85.1149 83.1834C85.2088 84.2478 84.943 85.3128 84.3512 86.2439C83.7595 87.175 82.8682 87.9302 81.7902 88.4142C80.7122 88.8983 79.4958 89.0893 78.2948 88.9631C76.6842 88.7925 75.2161 88.0646 74.213 86.9393C73.2099 85.814 72.7538 84.3832 72.9449 82.9612Z" fill="#2D2D2D"/>
<path d="M191.869 134.185V129.291L188.776 128.672C188.514 127.022 188.031 125.406 187.338 123.856L189.695 121.937L186.914 117.672L183.874 118.52C182.71 117.211 181.377 116.026 179.902 114.989L180.863 112.279L176.049 109.829L173.898 111.873C172.148 111.25 170.321 110.812 168.454 110.568L167.747 107.811H162.203L161.496 110.547C159.626 110.776 157.795 111.202 156.04 111.816L153.866 109.736L149.064 112.18L150 114.864C148.517 115.889 147.175 117.064 146 118.364L142.936 117.527L140.167 121.76L142.488 123.669C141.782 125.212 141.286 126.823 141.009 128.469L137.886 129.099V133.993L140.98 134.617C141.245 136.264 141.728 137.879 142.417 139.428L140.061 141.352L142.836 145.601L145.87 144.774C147.037 146.08 148.374 147.26 149.853 148.29L148.905 151L153.724 153.45L155.875 151.369C157.615 151.994 159.432 152.434 161.289 152.68L161.997 155.436H167.547L168.248 152.706C170.119 152.469 171.952 152.039 173.71 151.426L175.884 153.507L180.698 151.057L179.761 148.379C181.245 147.354 182.588 146.18 183.762 144.878L186.825 145.716L189.601 141.461L187.273 139.558C187.979 138.013 188.477 136.4 188.758 134.752L191.869 134.185ZM182.283 131.658C182.283 134.696 181.262 137.667 179.349 140.193C177.437 142.72 174.719 144.689 171.538 145.852C168.358 147.015 164.858 147.319 161.482 146.726C158.106 146.133 155.005 144.67 152.571 142.521C150.136 140.373 148.479 137.635 147.807 134.655C147.136 131.675 147.48 128.586 148.798 125.778C150.115 122.971 152.346 120.571 155.208 118.883C158.07 117.195 161.435 116.294 164.878 116.294C169.494 116.294 173.921 117.913 177.185 120.794C180.449 123.675 182.283 127.583 182.283 131.658Z" fill="#FFE3E3"/>
<path d="M95.5349 12.6918H81.2527V15.5991H95.5349V12.6918Z" fill="#DA2619"/>
<path d="M90.6386 16.894H81.2527V19.8014H90.6386V16.894Z" fill="#DA2619"/>
<path d="M86.6556 21.0963H81.2527V24.0036H86.6556V21.0963Z" fill="#DA2619"/>
<path opacity="0.2" d="M95.5349 12.6918H81.2527V15.5991H95.5349V12.6918Z" fill="black"/>
<path opacity="0.2" d="M90.6386 16.894H81.2527V19.8014H90.6386V16.894Z" fill="black"/>
<path opacity="0.2" d="M86.6556 21.0963H81.2527V24.0036H86.6556V21.0963Z" fill="black"/>
<path d="M61.2968 44.8962H56.4536V53.6546H61.2968V44.8962Z" fill="#DA2619"/>
<path d="M68.2901 47.9072H63.4468V53.6594H68.2901V47.9072Z" fill="#DA2619"/>
<path d="M75.2902 50.3459H70.447V53.6589H75.2902V50.3459Z" fill="#DA2619"/>
<path opacity="0.2" d="M61.2968 44.8962H56.4536V53.6546H61.2968V44.8962Z" fill="black"/>
<path opacity="0.2" d="M68.2901 47.9072H63.4468V53.6594H68.2901V47.9072Z" fill="black"/>
<path opacity="0.2" d="M75.2902 50.3459H70.447V53.6589H75.2902V50.3459Z" fill="black"/>
<path d="M114.012 60.2853H55.3692C54.5643 60.2867 53.767 60.1479 53.0229 59.877C52.2788 59.606 51.6026 59.2082 51.0329 58.7063C50.4631 58.2044 50.0112 57.6082 49.7028 56.9519C49.3944 56.2956 49.2357 55.5921 49.2357 54.8816V12.1456C49.2388 10.7133 49.8847 9.34039 51.0321 8.32759C52.1795 7.31478 53.7348 6.74457 55.3574 6.74182H114C114.805 6.74114 115.602 6.88037 116.346 7.15157C117.09 7.42276 117.766 7.82061 118.335 8.32239C118.905 8.82418 119.357 9.42007 119.665 10.0761C119.974 10.732 120.133 11.4353 120.134 12.1456V54.8816C120.134 56.3147 119.489 57.6892 118.341 58.7026C117.193 59.716 115.636 60.2853 114.012 60.2853ZM55.3692 7.23591C53.8888 7.23866 52.4699 7.759 51.423 8.68305C50.3762 9.6071 49.7867 10.8596 49.7836 12.1664V54.9024C49.7867 56.2092 50.3762 57.4617 51.423 58.3857C52.4699 59.3098 53.8888 59.8301 55.3692 59.8329H114.012C115.493 59.8301 116.912 59.3098 117.958 58.3857C119.005 57.4617 119.595 56.2092 119.598 54.9024V12.1456C119.595 10.8388 119.005 9.5863 117.958 8.66225C116.912 7.7382 115.493 7.21786 114.012 7.21511L55.3692 7.23591Z" fill="#2D2D2D"/>
<path d="M113.258 45.1349H92.3474V45.6082H113.258V45.1349Z" fill="#2D2D2D"/>
<path d="M113.258 47.1162H92.3474V47.5895H113.258V47.1162Z" fill="#2D2D2D"/>
<path d="M113.258 49.0934H92.3474V49.5667H113.258V49.0934Z" fill="#2D2D2D"/>
<path d="M113.258 51.0691H92.3474V51.5424H113.258V51.0691Z" fill="#2D2D2D"/>
<path d="M113.258 53.0463H92.3474V53.5195H113.258V53.0463Z" fill="#2D2D2D"/>
<path d="M76.7222 12.8896H55.8115V13.3629H76.7222V12.8896Z" fill="#2D2D2D"/>
<path d="M76.7222 14.8654H55.8115V15.3386H76.7222V14.8654Z" fill="#2D2D2D"/>
<path d="M76.7222 16.842H55.8115V17.3153H76.7222V16.842Z" fill="#2D2D2D"/>
<path d="M76.7222 18.8187H55.8115V19.292H76.7222V18.8187Z" fill="#2D2D2D"/>
<path d="M76.7222 20.7949H55.8115V21.2682H76.7222V20.7949Z" fill="#2D2D2D"/>
<path d="M109.128 28.8559L112.876 30.593L112.445 21.2626L103.507 26.2555L107.255 27.9874L104.432 32.7254C103.935 32.7249 103.452 32.8714 103.06 33.1415L98.0808 31.1079V31.0819C98.1022 30.5517 97.8862 30.0354 97.4796 29.6447C97.073 29.254 96.5084 29.0204 95.9081 28.9944C95.3078 28.9684 94.72 29.1522 94.272 29.5059C93.8241 29.8596 93.5519 30.3548 93.5145 30.8843C93.5086 30.9501 93.5086 31.0161 93.5145 31.0819C93.5175 31.3706 93.5877 31.6556 93.7207 31.9193L87.2395 38.1604C87.0316 38.1027 86.8152 38.0729 86.5973 38.072C86.4844 38.072 86.3718 38.0825 86.2614 38.1032L76.9285 27.6441C77.1418 27.1605 77.1352 26.6229 76.9101 26.1435C76.685 25.6641 76.2589 25.2799 75.7206 25.0712C75.1824 24.8625 74.5736 24.8454 74.0214 25.0234C73.4692 25.2014 73.0162 25.5608 72.757 26.0266C72.628 26.2782 72.5617 26.5514 72.5625 26.8276C72.5697 27.0342 72.6093 27.239 72.6804 27.4361L62.0453 37.0578C61.6223 36.9231 61.1635 36.9018 60.7268 36.9966C60.2901 37.0915 59.8949 37.2982 59.5909 37.5908C59.287 37.8834 59.0878 38.2488 59.0186 38.641C58.9493 39.0333 59.0129 39.4349 59.2016 39.7953C59.3902 40.1556 59.6953 40.4587 60.0786 40.6664C60.4619 40.8741 60.9062 40.9771 61.3557 40.9625C61.8051 40.9478 62.2396 40.8162 62.6045 40.5841C62.9694 40.3521 63.2484 40.0299 63.4064 39.6582C63.4956 39.4361 63.5414 39.2022 63.5419 38.9665C63.5425 38.8012 63.5167 38.6366 63.4653 38.4776L74.2182 28.7363C74.4291 28.7982 74.6499 28.8298 74.8722 28.8299C75.0127 28.8307 75.1529 28.8185 75.2905 28.7935L84.5704 39.1954C84.279 39.6699 84.213 40.2271 84.3871 40.7446C84.5611 41.262 84.9609 41.6972 85.4984 41.9544C86.036 42.2117 86.6673 42.2699 87.2535 42.1163C87.8396 41.9627 88.3327 41.6098 88.6241 41.1353C88.7888 40.8714 88.8834 40.578 88.901 40.2772C88.9069 40.2096 88.9069 40.1418 88.901 40.0743C88.8974 39.8639 88.8577 39.6553 88.7832 39.4554L95.4176 33.0791C95.5439 33.0998 95.6721 33.1102 95.8006 33.1103C96.254 33.1101 96.6971 32.9906 97.0732 32.767L102.14 34.8474C102.15 35.1145 102.219 35.3773 102.345 35.6205C102.47 35.8637 102.649 36.0823 102.872 36.2638C103.094 36.4452 103.355 36.5857 103.639 36.6771C103.924 36.7686 104.226 36.8091 104.529 36.7963C104.831 36.7835 105.127 36.7177 105.401 36.6027C105.674 36.4877 105.919 36.3258 106.12 36.1265C106.322 35.9272 106.477 35.6944 106.575 35.4417C106.674 35.1891 106.715 34.9216 106.695 34.655C106.673 34.2814 106.532 33.9209 106.288 33.6148L109.128 28.8559Z" fill="#2D2D2D"/>
<path d="M114.148 65.8037C113.225 65.8051 112.341 66.1296 111.69 66.7059C111.038 67.2821 110.672 68.0632 110.672 68.8775V95.5114C110.672 96.3252 111.038 97.1057 111.69 97.6812C112.342 98.2567 113.226 98.58 114.148 98.58H150.678C151.601 98.58 152.486 98.2568 153.139 97.6815C153.791 97.1062 154.159 96.3257 154.161 95.5114V68.8619C154.159 68.0476 153.791 67.2671 153.139 66.6918C152.486 66.1165 151.601 65.7933 150.678 65.7933L114.148 65.8037Z" stroke="#2D2D2D" stroke-linejoin="round"/>
<path d="M116.328 69.4341H113.553V69.7617H116.328V69.4341Z" fill="#2D2D2D"/>
<path d="M116.328 72.1069H113.553V72.4346H116.328V72.1069Z" fill="#2D2D2D"/>
<path d="M116.328 74.7808H113.553V75.1084H116.328V74.7808Z" fill="#2D2D2D"/>
<path d="M116.328 77.4592H113.553V77.7869H116.328V77.4592Z" fill="#2D2D2D"/>
<path d="M116.222 72.1069H113.447V72.4346H116.222V72.1069Z" fill="#2D2D2D"/>
<path d="M116.328 80.1326H113.553V80.4602H116.328V80.1326Z" fill="#2D2D2D"/>
<path d="M134.528 94.6006C137.161 94.6486 139.751 94.0059 141.971 92.7539C144.19 91.5019 145.938 89.6969 146.995 87.5673C148.051 85.4377 148.369 83.0793 147.906 80.7906C147.443 78.5019 146.222 76.3858 144.396 74.7101C142.57 73.0344 140.223 71.8746 137.65 71.3773C135.077 70.88 132.395 71.0677 129.943 71.9165C127.491 72.7654 125.38 74.2373 123.876 76.1459C122.372 78.0545 121.543 80.314 121.495 82.6385C121.429 85.7497 122.764 88.757 125.208 90.9999C127.651 93.2427 131.004 94.5378 134.528 94.6006ZM134.994 74.5563C136.858 74.5895 138.669 75.11 140.198 76.052C141.727 76.9939 142.905 78.3149 143.584 79.848C144.262 81.381 144.411 83.0573 144.01 84.6647C143.609 86.2722 142.677 87.7386 141.332 88.8785C139.987 90.0185 138.29 90.7808 136.454 91.069C134.618 91.3572 132.727 91.1583 131.019 90.4976C129.311 89.8369 127.864 88.744 126.859 87.3571C125.855 85.9702 125.34 84.3517 125.378 82.7061C125.429 80.4999 126.471 78.4019 128.274 76.8735C130.077 75.3452 132.494 74.5117 134.994 74.5563Z" fill="#DA2619"/>
<path opacity="0.2" d="M134.528 94.6006C137.161 94.6486 139.751 94.0059 141.971 92.7539C144.19 91.5019 145.938 89.6969 146.995 87.5673C148.051 85.4377 148.369 83.0793 147.906 80.7906C147.443 78.5019 146.222 76.3858 144.396 74.7101C142.57 73.0344 140.223 71.8746 137.65 71.3773C135.077 70.88 132.395 71.0677 129.943 71.9165C127.491 72.7654 125.38 74.2373 123.876 76.1459C122.372 78.0545 121.543 80.314 121.495 82.6385C121.429 85.7497 122.764 88.757 125.208 90.9999C127.651 93.2427 131.004 94.5378 134.528 94.6006ZM134.994 74.5563C136.858 74.5895 138.669 75.11 140.198 76.052C141.727 76.9939 142.905 78.3149 143.584 79.848C144.262 81.381 144.411 83.0573 144.01 84.6647C143.609 86.2722 142.677 87.7386 141.332 88.8785C139.987 90.0185 138.29 90.7808 136.454 91.069C134.618 91.3572 132.727 91.1583 131.019 90.4976C129.311 89.8369 127.864 88.744 126.859 87.3571C125.855 85.9702 125.34 84.3517 125.378 82.7061C125.429 80.4999 126.471 78.4019 128.274 76.8735C130.077 75.3452 132.494 74.5117 134.994 74.5563Z" fill="black"/>
<path d="M125.242 91.2623C126.495 92.3782 127.985 93.2652 129.627 93.8727C131.268 94.4803 133.029 94.7965 134.809 94.8032C136.589 94.81 138.352 94.5072 140 93.9121C141.647 93.3171 143.145 92.4414 144.409 91.3351C144.456 91.2894 144.481 91.2301 144.481 91.1687C144.481 91.1073 144.456 91.0481 144.409 91.0023L141.646 88.5475C141.621 88.5248 141.592 88.5067 141.56 88.4942C141.527 88.4817 141.493 88.4751 141.457 88.4746C141.386 88.4783 141.318 88.502 141.263 88.5423C140.394 89.3116 139.356 89.9164 138.214 90.3197C137.071 90.723 135.847 90.9163 134.617 90.8879H133.963C131.963 90.7892 130.055 90.111 128.536 88.9583C128.401 88.8491 128.259 88.7399 128.13 88.6255C126.577 87.2575 125.623 85.4494 125.434 83.5205C125.245 81.5915 125.835 79.6658 127.098 78.0832C127.11 78.0687 127.12 78.053 127.128 78.0364C127.187 77.9636 127.252 77.9012 127.322 77.8283C128.228 76.8152 129.397 76.0094 130.731 75.479C132.064 74.9485 133.522 74.709 134.982 74.7806C135.017 74.7813 135.051 74.7759 135.084 74.7648C135.116 74.7537 135.146 74.737 135.171 74.7158C135.196 74.6945 135.217 74.6691 135.231 74.6409C135.245 74.6128 135.252 74.5825 135.253 74.5518L135.33 71.1036C135.331 71.041 135.305 70.9803 135.256 70.9346C135.208 70.8889 135.141 70.8618 135.07 70.8591C132.373 70.8191 129.724 71.4905 127.462 72.7874C125.199 74.0843 123.427 75.9477 122.372 78.139C121.316 80.3302 121.025 82.7497 121.537 85.0876C122.048 87.4255 123.339 89.5755 125.242 91.2623Z" fill="#2D2D2D"/>
<path d="M135.076 70.8641C138.749 70.8676 142.27 72.1582 144.864 74.4523C147.459 76.7464 148.916 79.8562 148.914 83.098C148.912 86.3398 147.452 89.4482 144.854 91.7399C142.256 94.0315 138.734 95.3189 135.062 95.3189C131.389 95.3189 127.867 94.0315 125.269 91.7399C122.672 89.4482 121.212 86.3398 121.21 83.098C121.208 79.8562 122.664 76.7464 125.259 74.4523C127.854 72.1582 131.374 70.8676 135.047 70.8641H135.076ZM134.534 94.3567C137.114 94.4036 139.652 93.7741 141.826 92.5478C144.001 91.3215 145.714 89.5535 146.75 87.4675C147.786 85.3815 148.098 83.0711 147.646 80.8286C147.195 78.5861 146 76.5123 144.213 74.8693C142.425 73.2263 140.127 72.0881 137.607 71.5986C135.087 71.109 132.459 71.2902 130.055 72.1191C127.652 72.948 125.581 74.3875 124.105 76.2554C122.628 78.1233 121.812 80.3358 121.761 82.613C121.691 85.6659 122.997 88.6182 125.393 90.8212C127.788 93.0242 131.076 94.2977 134.534 94.3619V94.3567ZM135 74.3124C136.913 74.3467 138.772 74.881 140.341 75.8478C141.91 76.8145 143.119 78.1703 143.815 79.7437C144.511 81.3171 144.663 83.0373 144.252 84.6869C143.84 86.3365 142.884 87.8413 141.503 89.0111C140.123 90.1809 138.381 90.963 136.497 91.2586C134.613 91.5542 132.672 91.35 130.919 90.6719C129.167 89.9937 127.681 88.872 126.651 87.4486C125.621 86.0253 125.092 84.3642 125.131 82.6754C125.183 80.4113 126.253 78.2583 128.103 76.6899C129.954 75.1216 132.435 74.2664 135 74.3124ZM134.617 90.9085C136.424 90.9411 138.202 90.4999 139.725 89.6407C141.248 88.7816 142.448 87.543 143.173 86.0817C143.899 84.6204 144.117 83.0019 143.801 81.4311C143.484 79.8602 142.647 78.4075 141.395 77.2566C140.143 76.1057 138.533 75.3084 136.768 74.9655C135.003 74.6225 133.162 74.7494 131.478 75.33C129.795 75.9106 128.344 76.9188 127.309 78.2272C126.275 79.5357 125.703 81.0855 125.667 82.6806C125.62 84.8184 126.536 86.8853 128.214 88.4271C129.892 89.969 132.195 90.8596 134.617 90.9033V90.9085Z" fill="#2D2D2D"/>
<path d="M66.1283 108.377V139.926" stroke="#2D2D2D" stroke-width="0.879169" stroke-linecap="round" stroke-linejoin="round"/>
<path d="M71.8726 120.284H68.8382V138.346H71.8726V120.284Z" fill="#2D2D2D"/>
<path d="M76.2089 127.652H73.1745V138.34H76.2089V127.652Z" fill="#DA2619"/>
<path d="M81.3065 114.443H78.2721V138.346H81.3065V114.443Z" fill="#FFE3E3" stroke="#2D2D2D" stroke-width="0.879169" stroke-linejoin="round"/>
<path d="M89.7667 110.994H86.7324V138.341H89.7667V110.994Z" fill="#2D2D2D"/>
<path d="M94.109 131.58H91.0746V138.346H94.109V131.58Z" fill="#DA2619"/>
<path d="M99.205 122.197H96.1707V138.346H99.205V122.197Z" fill="#FFE3E3" stroke="#2D2D2D" stroke-width="0.879169" stroke-linejoin="round"/>
<path d="M111.567 124.668H108.533V138.341H111.567V124.668Z" fill="#2D2D2D"/>
<path d="M115.91 114.058H112.876V138.341H115.91V114.058Z" fill="#DA2619"/>
<path d="M121.006 119.42H117.972V138.341H121.006V119.42Z" fill="#FFE3E3" stroke="#2D2D2D" stroke-width="0.879169" stroke-linejoin="round"/>
<path d="M62.87 134.164H64.5669" stroke="#2D2D2D" stroke-width="0.879169" stroke-linecap="round" stroke-linejoin="round"/>
<path d="M62.87 130.269H64.5669" stroke="#2D2D2D" stroke-width="0.879169" stroke-linecap="round" stroke-linejoin="round"/>
<path d="M62.87 126.379H64.5669" stroke="#2D2D2D" stroke-width="0.879169" stroke-linecap="round" stroke-linejoin="round"/>
<path d="M62.87 122.484H64.5669" stroke="#2D2D2D" stroke-width="0.879169" stroke-linecap="round" stroke-linejoin="round"/>
<path d="M62.87 118.587H64.5669" stroke="#2D2D2D" stroke-width="0.879169" stroke-linecap="round" stroke-linejoin="round"/>
<path d="M62.87 114.693H64.5669" stroke="#2D2D2D" stroke-width="0.879169" stroke-linecap="round" stroke-linejoin="round"/>
<path d="M62.87 110.797H64.5669" stroke="#2D2D2D" stroke-width="0.879169" stroke-linecap="round" stroke-linejoin="round"/>
<path d="M64.1193 138.347H123.134" stroke="#2D2D2D" stroke-width="0.879169" stroke-linecap="round" stroke-linejoin="round"/>
<path opacity="0.3" d="M76.2089 127.652H73.1745V138.34H76.2089V127.652Z" fill="black"/>
<path opacity="0.3" d="M94.109 131.58H91.0746V138.346H94.109V131.58Z" fill="black"/>
<path opacity="0.3" d="M115.91 114.058H112.876V138.341H115.91V114.058Z" fill="black"/>
<path d="M60.4605 103.999C59.4436 104 58.4689 104.358 57.7499 104.992C57.0309 105.627 56.6263 106.487 56.6248 107.385V138.336C56.6263 139.234 57.0307 140.094 57.7496 140.73C58.4684 141.365 59.4431 141.724 60.4605 141.727H125.538C126.555 141.724 127.531 141.366 128.251 140.73C128.97 140.095 129.376 139.234 129.379 138.336V107.374C129.378 106.475 128.972 105.614 128.252 104.978C127.532 104.342 126.556 103.985 125.538 103.983L60.4605 103.999Z" stroke="#2D2D2D" stroke-linejoin="round"/>
<path d="M8.96469 173.187C8.96469 173.187 10.3257 181.207 7.03212 182.029C3.73849 182.85 1.4524 181.769 1.03996 180.567C0.627516 179.366 3.54405 170.784 3.54405 170.784L8.96469 173.187Z" fill="#FFE3E3"/>
<path d="M66.2521 174.961L80.5696 177.957C80.5696 177.957 81.6538 178.477 81.5359 179.335C81.4181 180.193 74.8839 182.393 73.0515 182.669C71.219 182.945 60.6429 184.162 59.1405 183.023C57.638 181.884 60.8138 172.803 60.8138 172.803L66.2521 174.961Z" fill="#FFE3E3"/>
<path d="M40.3282 28.6953C40.3282 28.6953 42.3433 31.379 42.3727 32.7364C42.4022 34.0938 42.2136 35.6437 43.1564 36.4447C44.0991 37.2456 44.8238 38.1194 44.4349 38.525C44.0461 38.9307 43.2978 39.7212 43.2978 39.7212C43.2978 39.7212 44.27 44.2928 43.0091 45.1198C41.7482 45.9467 37.9596 45.1198 37.9596 45.1198V48.0739C37.9596 48.0739 32.5743 46.5136 28.8565 46.8049L28.1966 40.4754C28.1966 40.4754 36.2745 26.7657 40.3282 28.6953Z" fill="#FFE3E3"/>
<path d="M73.4524 47.3982C73.4524 47.3982 72.9692 44.1528 74.7604 42.1973C74.7604 42.1973 72.6157 41.8748 72.875 41.1883C73.1342 40.5018 76.4102 41.4015 76.4102 41.4015L75.5264 39.8412C75.5264 39.8412 72.4331 38.9363 72.816 38.0885C73.199 37.2408 77.7359 39.3264 77.7359 39.3264C77.7359 39.3264 75.0432 37.3396 75.4203 36.5127C75.7974 35.6857 78.5372 35.7013 79.9984 39.9869L80.7408 39.1703C80.7408 39.1703 81.0059 34.2919 81.766 34.0266C81.766 34.0266 82.9444 34.5987 82.9444 37.402C82.9444 37.402 84.1228 38.6554 83.3745 39.7164C82.6262 40.7774 80.8645 43.1646 79.3679 44.0592C77.8714 44.9538 77.8773 48.4436 77.8773 48.4436L73.4524 47.3982Z" fill="#FFE3E3"/>
<path d="M26.0344 20.7224L26.712 19.9214C26.712 19.9214 34.295 16.9361 34.1064 16.0051C33.9179 15.0742 29.6226 16.3588 28.8036 15.8647C28.8036 15.8647 29.5873 7.05436 28.8036 6.76831C28.02 6.48226 27.148 10.903 27.148 10.903C27.148 10.903 26.0462 6.36784 25.1977 6.49786C24.3493 6.62788 24.7028 11.1787 24.7028 11.1787C24.7028 11.1787 23.0825 8.26098 22.452 8.53142C21.8216 8.80187 22.7643 12.3593 22.7643 12.3593C22.7643 12.3593 21.5859 11.1371 21.1146 11.5064C21.2698 13.3439 21.8408 15.1354 22.7938 16.7749L21.1558 19.2193L26.0344 20.7224Z" fill="#FFE3E3"/>
<path d="M72.6337 47.419L77.8599 48.0639C77.8599 48.0639 74.036 76.669 72.9107 80.2004C71.7853 83.7319 70.7719 86.2699 66.9303 86.4415C63.0887 86.6132 49.4016 76.4558 49.4016 76.4558L48.7653 90.4983L49.655 96.3233C49.655 96.3233 32.9158 104.088 15.8938 97.3323L16.2768 90.4983L10.1432 59.2407L5.31769 44.3973L20.8902 18.3354L26.5348 20.9359L16.5773 44.6573L19.3642 52.5783L22.4811 51.4757L25.9279 47.5958C25.9279 47.5958 31.7728 44.9174 39.1672 48.636L40.3456 51.8918C40.3456 51.8918 49.0186 52.4691 63.6602 70.3863L72.6337 47.419Z" fill="#DA2619"/>
<path opacity="0.2" d="M35.2723 47.4188L35.9322 51.4235C35.9322 51.4235 40.799 54.2736 42.7551 55.2618C42.7551 55.2618 47.5394 81.9322 43.9983 87.1799L40.2687 92.334C40.2687 92.334 44.0808 92.334 45.8366 89.978C45.8366 89.978 43.6507 96.4167 37.9826 98.1486C37.9826 98.1486 46.6851 97.3477 49.6782 96.3283L48.7885 90.5033L50.2203 58.0235C50.2203 58.0235 51.5695 55.8495 40.3512 51.954L38.6955 48.4434L35.2723 47.4188Z" fill="black"/>
<path d="M40.3282 29.0593C40.3282 29.0593 42.1547 31.4205 42.3727 32.7364C42.5907 34.0522 41.9426 35.5033 43.1563 36.4446C44.3701 37.386 44.9239 38.0049 44.4349 38.525C43.9459 39.0451 43.2977 39.7212 43.2977 39.7212C43.2977 39.7212 43.7927 44.1784 43.009 45.1198C42.2254 46.0611 37.9596 45.1198 37.9596 45.1198V48.0739" stroke="#2D2D2D" stroke-linecap="round" stroke-linejoin="round"/>
<path d="M37.9595 39.5239C37.9595 39.5239 36.2508 35.6284 34.9723 36.5697C33.6937 37.5111 34.8309 42.66 37.9595 41.5314" stroke="#2D2D2D" stroke-linecap="round" stroke-linejoin="round"/>
<path d="M37.4934 38.6186C37.4934 38.6186 39.5262 38.4729 38.2417 34.2654C36.9573 30.0579 39.7383 30.6248 42.7255 29.4285C45.7128 28.2323 46.4257 26.0375 45.7835 24.7217C45.1412 23.4059 44.0748 22.7089 40.3039 23.3383C40.3039 23.3383 36.1795 19.1307 32.1965 23.7803C32.1965 23.7803 23.2289 23.6555 20.8132 27.421C18.3975 31.1865 21.5968 40.7978 26.2927 44.0015C30.9887 47.2053 35.5785 44.6412 36.533 41.6299C36.533 41.6299 33.3337 40.106 34.9717 36.5902C34.9717 36.5694 36.4623 36.1013 37.4934 38.6186Z" fill="#2D2D2D"/>
<path d="M9.67755 56.8685C9.67755 56.8685 31.3778 42.9769 50.2911 56.8685L48.765 90.4769L49.6547 96.3019C49.6547 96.3019 33.6639 102.912 15.8936 97.3109L16.2766 90.4769L9.67755 56.8685Z" stroke="#2D2D2D" stroke-linecap="round" stroke-linejoin="round"/>
<path d="M22.1926 51.8185L25.9282 47.6161C25.9282 47.6161 33.2519 45.3797 39.1675 48.6563L40.3459 51.9121" stroke="#2D2D2D" stroke-linecap="round" stroke-linejoin="round"/>
<path d="M50.2913 56.8688L69.1869 76.0498" stroke="#2D2D2D" stroke-linecap="round" stroke-linejoin="round"/>
<path d="M49.4192 76.0656C49.4192 76.0656 61.9397 86.3478 66.9302 86.4674C71.9207 86.587 72.7515 81.2665 72.7515 81.2665L77.8599 48.0846L72.6337 47.4397L63.6425 70.4434" stroke="#2D2D2D" stroke-linecap="round" stroke-linejoin="round"/>
<path d="M77.7716 47.9804C77.7716 47.9804 78.4256 44.2305 80.1284 43.3775C81.8312 42.5246 83.8521 39.2168 83.204 38.265C82.5559 37.3133 80.5762 40.4078 78.7909 41.0007C77.0056 41.5936 75.5562 44.5062 75.3087 45.77" stroke="#2D2D2D" stroke-linecap="round" stroke-linejoin="round"/>
<path d="M82.6557 38.1298C82.6557 38.1298 82.6557 33.7975 81.7542 34.0003C80.8527 34.2032 80.729 39.6901 80.729 39.6901" stroke="#2D2D2D" stroke-linecap="round" stroke-linejoin="round"/>
<path d="M80.0694 40.2472C80.0694 40.2472 79.4802 37.8183 77.8599 36.6325C76.2396 35.4467 75.2262 36.0864 75.4088 36.4869C75.5915 36.8874 78.3548 40.1276 78.29 41.2302" stroke="#2D2D2D" stroke-linecap="round" stroke-linejoin="round"/>
<path d="M77.2651 39.0457C77.2651 39.0457 72.8166 37.2462 72.8048 38.3228C72.7931 39.3994 75.5152 39.8155 75.5152 39.8155L76.399 41.3757C76.399 41.3757 72.6517 40.3355 72.8638 41.1625C73.0759 41.9894 74.7492 42.1715 74.7492 42.1715C74.7492 42.1715 72.9286 43.763 73.4412 47.3724" stroke="#2D2D2D" stroke-linecap="round" stroke-linejoin="round"/>
<path d="M47.0803 96.6919L48.2174 103.724C48.2174 103.724 58.6875 131.45 60.2784 136.869C61.8692 142.288 62.7825 154.552 63.2244 160.174C63.6663 165.797 67.3488 175.257 67.3488 175.257C67.3488 175.257 66.8951 179.075 59.1589 178.471C59.1589 178.471 55.9713 167.222 52.5598 160.59C49.1484 153.959 48.6476 143.901 48.6476 143.901L32.0321 116.981C32.0321 116.981 28.6324 132.656 26.3463 138.476C23.9895 144.478 7.92208 177.78 9.04745 175.444C9.04745 175.444 6.77314 176.651 1.97705 173.634C1.97705 173.634 5.38852 163.591 6.29589 158.167C7.20325 152.742 11.9876 140.286 11.9876 140.286C11.9876 140.286 13.1247 116.783 14.9335 109.549C14.9335 109.549 13.7552 101.581 16.271 95.9534C26.243 98.8282 36.9462 99.0847 47.0803 96.6919Z" fill="#2D2D2D"/>
<path d="M22.9289 112.259L30.3882 114.172L31.4723 116.508" stroke="#FFE3E3" stroke-linecap="round" stroke-linejoin="round"/>
<path d="M59.3235 177.65C59.3235 177.65 58.316 182.107 59.1409 183.023C59.5769 183.501 60.8731 183.413 61.4977 183.423C62.9353 183.449 64.3789 183.366 65.8165 183.283C68.6918 183.116 71.6378 183.142 74.4129 182.357C76.7508 181.737 78.9841 180.843 81.0532 179.699C82.1845 179.034 81.0532 177.957 81.0532 177.957L67.3543 175.242" stroke="#2D2D2D" stroke-linecap="round" stroke-linejoin="round"/>
<path d="M59.2523 181.452C59.2523 181.452 74.6481 183.683 81.0527 177.957" stroke="#2D2D2D" stroke-linecap="round" stroke-linejoin="round"/>
<path d="M2.57161 173.187C2.57161 173.187 0.804008 178.539 1.06326 180.224C1.3225 181.909 3.2374 182.305 5.47636 182.258C7.71532 182.211 8.63447 181.327 8.96442 179.99C9.29438 178.654 8.96442 174.332 8.96442 174.332" stroke="#2D2D2D" stroke-linecap="round" stroke-linejoin="round"/>
<path d="M1.03973 179.408L8.96447 179.99" stroke="#2D2D2D" stroke-linecap="round" stroke-linejoin="round"/>
<path d="M21.7267 18.5016C22.3984 17.4198 22.7931 16.7593 22.7931 16.7593C22.7931 16.7593 20.6072 12.0941 21.1552 11.522C21.7031 10.9499 22.9699 12.5622 22.9699 12.5622C22.9699 12.5622 21.6737 8.8539 22.4926 8.53665C23.3116 8.21939 24.7729 11.6572 24.7729 11.6572C24.7729 11.6572 24.3899 6.69032 25.2383 6.45628C26.0868 6.22224 27.1061 11.1787 27.1061 11.1787C27.1061 11.1787 28.202 6.76833 28.8737 6.72672C29.5454 6.68512 28.8737 15.8231 28.8737 15.8231C30.2288 16.4108 34.2118 14.9754 34.1765 16.1352C34.1411 17.295 26.5169 19.9631 26.5169 19.9631C26.3835 20.1158 26.2671 20.2795 26.1693 20.452" stroke="#2D2D2D" stroke-linecap="round" stroke-linejoin="round"/>
<path d="M9.67777 56.8687L5.31769 44.3969L20.8902 18.3507L26.5348 20.9564L16.5773 44.6778L19.3642 52.5988" stroke="#2D2D2D" stroke-linecap="round" stroke-linejoin="round"/>
<path d="M10.1843 42.4256C10.1843 42.4256 15.7699 42.384 16.5771 44.6776C14.1303 44.5576 11.7065 45.1495 9.67755 46.3627" stroke="#2D2D2D" stroke-linecap="round" stroke-linejoin="round"/>
<path d="M28.6381 47.0755V43.4608" stroke="#2D2D2D" stroke-linecap="round" stroke-linejoin="round"/>
<path opacity="0.2" d="M50.1974 66.9277L51.5938 75.1296C51.5938 75.1296 52.7369 69.7778 53.4498 69.7778C54.1627 69.7778 53.4498 76.0502 53.4498 76.0502C53.4498 76.0502 65.1631 85.4118 70.2302 85.4638C70.2302 85.4638 67.4138 87.2113 64.5916 85.9111C61.7693 84.6109 49.3961 76.0293 49.3961 76.0293L50.1974 66.9277Z" fill="black"/>
<path opacity="0.2" d="M25.5329 20.4932L14.8213 43.4604C14.8213 43.4604 11.0916 43.4084 9.67755 46.3626L15.4046 45.4576L17.3313 53.259L19.364 52.5777L16.5771 44.6567L26.5346 20.9352L25.5329 20.4932Z" fill="black"/>
<path d="M173.152 60.8843L168.933 52.9321L152.353 62.6006L166.034 83.9972L176.705 78.6507L173.152 60.8843Z" fill="#FFE3E3"/>
<path d="M186.816 129.667C186.816 129.667 189.496 136.236 189.891 139.435C190.286 142.633 189.078 156.104 189.337 159.817C189.597 163.531 191.871 174.614 191.871 174.614C191.871 174.614 180.717 181.77 177.176 179.466C177.176 179.466 185.036 173.849 185.832 171.613L183.286 156.431L180.759 138.478C180.759 138.478 180.116 134.728 179.221 132.798C178.325 130.869 178.461 126.776 178.461 126.776L186.816 129.667Z" fill="#FFE3E3"/>
<path d="M186.58 129.085C186.58 129.085 189.479 136.002 190.156 140.969C190.834 145.936 188.795 157.201 189.467 162.626C190.139 168.05 190.828 171.051 192.018 173.906L191.429 182.285H189.903L189.314 177.531C189.314 177.531 186.922 176.653 185.472 179.695C184.023 182.738 178.667 183.138 176.128 181.375C176.128 181.375 176.128 180.012 178.037 178.811C179.946 177.609 184.93 173.854 185.838 171.613C185.838 171.613 183.115 156.01 182.479 150.955C181.843 145.899 180.847 136.709 179.574 133.745C178.302 130.78 178.308 126.542 178.308 126.542" stroke="#2D2D2D" stroke-linecap="round" stroke-linejoin="round"/>
<path d="M191.434 172.335C191.434 172.335 183.957 179.512 177.682 179.466" stroke="#2D2D2D" stroke-linecap="round" stroke-linejoin="round"/>
<path d="M177.177 179.466C178.214 179.568 179.263 179.452 180.24 179.128C181.931 178.608 188.018 176.007 191.011 172.726L191.93 173.646L191.447 182.093L189.909 182.285L189.32 177.531C189.32 177.531 187.352 176.736 186.085 178.691C184.819 180.647 183.905 181.989 181.69 182.42C179.474 182.852 176.134 181.38 176.134 181.38C176.134 181.38 175.55 180.605 177.177 179.466Z" fill="#2D2D2D"/>
<path d="M192.029 129.89C192.732 132.17 193.586 134.412 194.587 136.604C195.924 139.314 207.478 166.718 207.478 166.718C207.478 166.718 208.356 181.551 213.276 181.504C218.196 181.457 213.082 171.139 213.082 171.139L210.088 165.485C210.088 165.485 208.945 148.879 207.531 142.773L201.51 128.455L192.029 129.89Z" fill="#FFE3E3"/>
<path d="M201.575 128.933C201.575 128.933 206.518 138.862 207.538 142.773C208.557 146.684 209.582 164.279 210.095 165.485C210.607 166.692 218.786 179.471 213.842 182.03C208.899 184.588 207.732 167.29 207.732 167.29C207.732 167.29 196.319 139.309 194.611 136.605C192.902 133.9 191.034 126.073 191.034 126.073L201.575 128.933Z" stroke="#2D2D2D" stroke-linecap="round" stroke-linejoin="round"/>
<path d="M214.802 175.472C214.802 175.472 214.46 178.936 213.164 179.425C211.868 179.914 209.004 176.008 209.004 176.008" stroke="#2D2D2D" stroke-linecap="round" stroke-linejoin="round"/>
<path d="M209.016 176.605C209.016 176.605 210.784 182.513 213.141 182.263C215.497 182.014 215.922 178.732 214.808 176.199C214.808 176.199 214.413 178.8 213.17 179.424C211.915 179.439 209.016 176.605 209.016 176.605Z" fill="#2D2D2D"/>
<path d="M188.153 77.2889C188.153 77.2889 194.11 84.4662 198.24 96.0123C202.37 107.558 201.946 129.673 201.946 129.673C201.946 129.673 186.574 134.036 171.673 128.492L174.401 78.6672C174.401 78.6672 183.987 78.8232 188.153 77.2889Z" fill="#2D2D2D"/>
<path d="M180.458 25.2374C180.458 25.2374 175.827 29.0653 175.285 31.5722C174.838 33.3268 174.12 35.019 173.152 36.6014C173.65 37.2669 174.38 37.7708 175.232 38.0369C175.232 38.0369 175.532 43.1702 177.223 43.5655L181.265 42.6293L181.695 44.8293L187.493 42.8842V39.9196L191.912 37.3712L190.339 30.7088L183.151 27.7443L180.458 25.2374Z" fill="#FFE3E3"/>
<path d="M174.371 78.2662L173.859 71.0681C173.859 71.0681 170.088 64.827 171.284 62.5594C172.604 60.0681 180.534 50.8417 180.534 50.8417L179.757 45.8072L190.869 41.6049L191.399 45.8072L190.056 46.6862L191.547 49.5051C191.547 49.5051 191.641 48.6677 194.222 52.9169C196.802 57.166 206.524 72.2851 207.29 75.1872C208.056 78.0893 192.171 88.3144 186.809 90.7276C186.809 90.7276 186.191 89.5574 179.821 93.8481C178.201 93.5985 175.962 92.3139 175.485 91.5181C175.008 90.7224 177.317 88.8292 177.317 88.8292C177.317 88.8292 178.708 86.5096 181.165 88.3664H183.781L198.752 76.0662L191.164 66.2624L188.153 77.2728C188.153 77.2728 178.413 79.8837 174.371 78.2662Z" fill="#FFE3E3"/>
<path d="M179.757 45.8072L180.552 50.9509L191.399 45.8072L190.869 41.6049L179.757 45.8072Z" stroke="#2D2D2D" stroke-linecap="round" stroke-linejoin="round"/>
<path d="M180.552 50.9513C180.552 50.9513 170.683 61.608 170.948 63.7092C171.214 65.8103 173.859 71.0685 173.859 71.0685L174.401 78.6618C174.401 78.6618 182.385 78.8542 188.153 77.2888L191.164 66.2784" stroke="#2D2D2D" stroke-linecap="round" stroke-linejoin="round"/>
<path d="M198.752 76.0658L183.463 55.7198C183.463 55.7198 181.96 51.0389 185.578 49.3695C189.195 47.7 192.342 49.8167 193.467 50.9297C194.593 52.0427 206.73 72.6852 207.296 75.166C207.861 77.6469 195.04 87.5702 187.622 90.2487C187.622 90.2487 184.246 92.0378 184.246 88.366L198.752 76.0658Z" stroke="#2D2D2D" stroke-linecap="round" stroke-linejoin="round"/>
<path d="M191.399 49.5044L189.967 46.4879" stroke="#2D2D2D" stroke-linecap="round" stroke-linejoin="round"/>
<path d="M184.246 88.3877H181.17C181.17 88.3877 178.772 86.4945 177.635 88.3877C176.498 90.2808 175.06 90.6553 175.49 91.5394C175.921 92.4236 178.383 94.1867 179.827 93.8694C181.271 93.5522 185.342 90.6293 185.342 90.6293" stroke="#2D2D2D" stroke-linecap="round" stroke-linejoin="round"/>
<path d="M179.35 26.5848C179.35 26.5848 175.738 29.3725 175.338 30.9172C174.937 32.4619 175.108 35.0779 173.152 36.6018C173.152 36.6018 173.252 37.85 175.232 38.0373C175.232 38.0373 176.245 42.9625 177.223 43.5659C178.201 44.1692 184.188 41.4439 186.533 40.3205C187.131 39.9584 187.566 39.423 187.764 38.807" stroke="#2D2D2D" stroke-linecap="round" stroke-linejoin="round"/>
<path d="M176.545 39.5403C177.653 39.3754 178.652 38.8549 179.35 38.0789" stroke="#2D2D2D" stroke-linecap="round" stroke-linejoin="round"/>
<path d="M176.545 32.4147C176.545 32.4147 177.971 31.6814 178.755 32.8984" stroke="#2D2D2D" stroke-linecap="round" stroke-linejoin="round"/>
<path d="M177.524 35.0306C177.524 35.4519 177.388 35.7951 177.17 35.8055C176.952 35.8159 176.752 35.4831 176.728 35.067C176.705 34.6509 176.864 34.2973 177.082 34.2869C177.3 34.2765 177.5 34.6093 177.524 35.0306Z" fill="#2D2D2D"/>
<path d="M181.265 42.6294L181.743 45.0582" stroke="#2D2D2D" stroke-linecap="round" stroke-linejoin="round"/>
<path d="M185.896 34.7085C185.896 34.7085 186.78 33.195 187.764 34.0791C188.748 34.9633 190.616 39.0512 185.578 38.0787C185.578 38.0787 185.242 40.5751 187.764 41.1992C190.286 41.8233 195.076 38.3803 195.235 32.5085C195.394 26.6366 188.972 22.6735 185.578 23.8073C185.578 23.8073 180.659 16.9993 175.78 19.9014C170.901 22.8035 174.189 27.2711 173.152 28.2801C172.115 29.2891 169.9 28.3425 169.829 31.0522C169.758 33.7619 174.89 33.4862 174.89 33.4862L175.509 30.5009L179.757 26.5846C179.757 26.5846 178.755 29.4139 180.458 31.8739C181.996 34.0895 185.896 34.7085 185.896 34.7085Z" fill="#2D2D2D"/>
<path d="M195.235 32.5082C195.235 32.5082 197.592 32.9763 197.333 35.79C197.073 38.6037 191.753 45.5209 192.154 49.5048L205.888 72.0976C205.888 72.0976 212.069 71.0574 211.78 65.4404C211.491 59.8235 203.949 55.0906 205.405 50.9507C206.86 46.8107 212.575 36.2685 204.48 30.225C196.384 24.1815 183.763 33.4444 183.763 33.4444L189.944 31.6864L195.235 32.5082Z" fill="#2D2D2D"/>
<path d="M172.621 60.4215L168.933 52.9321L152.353 62.6006L166.034 83.9972L174.33 79.9665" stroke="#2D2D2D" stroke-linecap="round" stroke-linejoin="round"/>
<path d="M157.514 73.1848C157.514 73.1848 156.618 71.5517 157.815 70.6519C159.011 69.7522 163.117 67.0841 163.117 67.7394C163.145 67.8985 163.133 68.0609 163.085 68.2159C163.036 68.3709 162.951 68.5152 162.835 68.6392C161.656 70.033 158.834 72.2798 159.017 72.4619C159.017 72.4619 164.166 69.4453 164.661 69.7314C164.785 69.8042 164.714 70.1942 164.284 70.5739C162.873 71.6827 161.383 72.711 159.824 73.6529C159.824 73.6529 165.256 71.7961 165.957 72.0926C166.158 72.1758 166.116 72.4462 165.486 72.7843C163.909 73.5411 162.286 74.2217 160.625 74.8231L161.986 76.8306C161.986 76.8306 159.417 77.2259 157.514 73.1848Z" fill="#FFE3E3" stroke="#2D2D2D" stroke-linecap="round" stroke-linejoin="round"/>
<path d="M187.116 39.5399L187.493 42.8841" stroke="#2D2D2D" stroke-linejoin="round"/>
</svg>
