<svg width="22" height="22" viewBox="0 0 22 22" fill="none" xmlns="http://www.w3.org/2000/svg">
<path d="M15.125 0H6.875C3.07863 0 0 3.07863 0 6.875V15.125C0 18.9214 3.07863 22 6.875 22H15.125C18.9214 22 22 18.9214 22 15.125V6.875C22 3.07863 18.9214 0 15.125 0ZM19.9375 15.125C19.9375 17.7787 17.7787 19.9375 15.125 19.9375H6.875C4.22125 19.9375 2.0625 17.7787 2.0625 15.125V6.875C2.0625 4.22125 4.22125 2.0625 6.875 2.0625H15.125C17.7787 2.0625 19.9375 4.22125 19.9375 6.875V15.125Z" fill="#231F20"/>
<path d="M11.0039 5.5C7.96653 5.5 5.50391 7.96262 5.50391 11C5.50391 14.0374 7.96653 16.5 11.0039 16.5C14.0413 16.5 16.5039 14.0374 16.5039 11C16.5039 7.96262 14.0413 5.5 11.0039 5.5ZM11.0039 14.4375C9.10916 14.4375 7.56641 12.8948 7.56641 11C7.56641 9.10388 9.10916 7.5625 11.0039 7.5625C12.8987 7.5625 14.4414 9.10388 14.4414 11C14.4414 12.8948 12.8987 14.4375 11.0039 14.4375Z" fill="#231F20"/>
<path d="M16.9048 5.82024C17.3095 5.82024 17.6376 5.49212 17.6376 5.08737C17.6376 4.68261 17.3095 4.35449 16.9048 4.35449C16.5 4.35449 16.1719 4.68261 16.1719 5.08737C16.1719 5.49212 16.5 5.82024 16.9048 5.82024Z" fill="#231F20"/>
</svg>
