<svg width="24" height="20" viewBox="0 0 24 20" fill="none" xmlns="http://www.w3.org/2000/svg">
<path d="M23.7037 2.35765C22.8161 2.76666 21.8744 3.03481 20.9101 3.15314C21.9243 2.52138 22.6826 1.52781 23.0435 0.357851C22.0897 0.948746 21.0454 1.36525 19.956 1.58926C19.2223 0.780381 18.2526 0.245072 17.1967 0.066054C16.1409 -0.112964 15.0577 0.074273 14.1146 0.598833C13.1714 1.12339 12.4208 1.95607 11.9787 2.96819C11.5366 3.98031 11.4277 5.11553 11.6687 6.19841C9.73503 6.09578 7.84371 5.57189 6.11749 4.66074C4.39127 3.74959 2.86873 2.47154 1.64867 0.90952C1.0283 2.02191 0.838638 3.33789 1.1182 4.59028C1.39777 5.84266 2.12561 6.93757 3.15394 7.65269C2.38048 7.62909 1.62372 7.41332 0.94701 7.02345C0.94701 7.04438 0.94701 7.06655 0.94701 7.08748C0.947863 8.25552 1.33794 9.38723 2.05095 10.2903C2.76396 11.1934 3.75594 11.8121 4.85832 12.0414C4.14211 12.2434 3.39104 12.2733 2.66206 12.1289C2.97261 13.1328 3.57752 14.0107 4.39213 14.6398C5.20675 15.2689 6.19029 15.6176 7.2051 15.6371C5.4813 17.0433 3.35198 17.8054 1.16035 17.8007C0.772555 17.8006 0.385099 17.7767 0 17.7293C2.22353 19.2145 4.81177 20.0028 7.45519 20C16.4002 20 21.2917 12.3012 21.2917 5.62334C21.2917 5.40415 21.2917 5.18619 21.2787 4.96946C22.2299 4.25541 23.0511 3.37099 23.7037 2.35765Z" fill="#231F20"/>
</svg>
